<mxfile host="app.diagrams.net" modified="2022-06-08T20:10:16.082Z" agent="5.0 (Windows NT 10.0; Win64; x64) AppleWebKit/537.36 (KHTML, like Gecko) Chrome/102.0.5005.63 Safari/537.36" etag="Nz68kDweQLcP6GW9Etwo" version="19.0.1" type="github">
  <diagram id="5hiqjDNLy4zyRDHusccU" name="Page-1">
    <mxGraphModel dx="1673" dy="1038" grid="1" gridSize="10" guides="1" tooltips="1" connect="1" arrows="1" fold="1" page="1" pageScale="1" pageWidth="1100" pageHeight="850" math="0" shadow="0">
      <root>
        <mxCell id="0" />
        <mxCell id="1" parent="0" />
        <mxCell id="M7fRADg-RS6Ljco3iAjE-14" value="(36, 4, 4)" style="text;html=1;align=center;verticalAlign=middle;resizable=0;points=[];autosize=1;strokeColor=none;fillColor=none;" vertex="1" parent="1">
          <mxGeometry x="990" y="270" width="60" height="20" as="geometry" />
        </mxCell>
        <mxCell id="M7fRADg-RS6Ljco3iAjE-17" value="" style="shape=cube;whiteSpace=wrap;html=1;boundedLbl=1;backgroundOutline=1;darkOpacity=0.05;darkOpacity2=0.1;direction=south;size=10;fillColor=#d5e8d4;strokeColor=#82b366;" vertex="1" parent="1">
          <mxGeometry x="80" y="580" width="230" height="40" as="geometry" />
        </mxCell>
        <mxCell id="M7fRADg-RS6Ljco3iAjE-18" value="" style="shape=cube;whiteSpace=wrap;html=1;boundedLbl=1;backgroundOutline=1;darkOpacity=0.05;darkOpacity2=0.1;direction=south;size=10;fillColor=#d5e8d4;strokeColor=#82b366;" vertex="1" parent="1">
          <mxGeometry x="80" y="550" width="230" height="40" as="geometry" />
        </mxCell>
        <mxCell id="M7fRADg-RS6Ljco3iAjE-19" value="" style="shape=cube;whiteSpace=wrap;html=1;boundedLbl=1;backgroundOutline=1;darkOpacity=0.05;darkOpacity2=0.1;direction=south;size=10;fillColor=#d5e8d4;strokeColor=#82b366;" vertex="1" parent="1">
          <mxGeometry x="80" y="520" width="230" height="40" as="geometry" />
        </mxCell>
        <mxCell id="M7fRADg-RS6Ljco3iAjE-20" value="" style="shape=cube;whiteSpace=wrap;html=1;boundedLbl=1;backgroundOutline=1;darkOpacity=0.05;darkOpacity2=0.1;direction=south;size=10;fillColor=#d5e8d4;strokeColor=#82b366;" vertex="1" parent="1">
          <mxGeometry x="80" y="490" width="230" height="40" as="geometry" />
        </mxCell>
        <mxCell id="M7fRADg-RS6Ljco3iAjE-21" value="4x12 Embedding" style="text;html=1;align=center;verticalAlign=middle;resizable=0;points=[];autosize=1;strokeColor=none;fillColor=none;" vertex="1" parent="1">
          <mxGeometry x="141.5" y="630" width="110" height="20" as="geometry" />
        </mxCell>
        <mxCell id="M7fRADg-RS6Ljco3iAjE-22" value="(19, 11, 11)" style="text;html=1;align=center;verticalAlign=middle;resizable=0;points=[];autosize=1;strokeColor=none;fillColor=none;" vertex="1" parent="1">
          <mxGeometry x="80" y="425" width="80" height="20" as="geometry" />
        </mxCell>
        <mxCell id="M7fRADg-RS6Ljco3iAjE-23" value="(16, 7, 7)" style="text;html=1;align=center;verticalAlign=middle;resizable=0;points=[];autosize=1;strokeColor=none;fillColor=none;" vertex="1" parent="1">
          <mxGeometry x="276.5" y="370" width="60" height="20" as="geometry" />
        </mxCell>
        <mxCell id="M7fRADg-RS6Ljco3iAjE-26" value="(24, 6, 6)" style="text;html=1;align=center;verticalAlign=middle;resizable=0;points=[];autosize=1;strokeColor=none;fillColor=none;" vertex="1" parent="1">
          <mxGeometry x="535" y="330" width="60" height="20" as="geometry" />
        </mxCell>
        <mxCell id="NuxIAipGaiC-0c_ZpefP-2" value="" style="shape=cube;whiteSpace=wrap;html=1;boundedLbl=1;backgroundOutline=1;darkOpacity=0.05;darkOpacity2=0.1;direction=south;size=100;fillColor=#ffe6cc;strokeColor=#d79b00;" parent="1" vertex="1">
          <mxGeometry x="80" y="40" width="120" height="370" as="geometry" />
        </mxCell>
        <mxCell id="M7fRADg-RS6Ljco3iAjE-13" value="" style="shape=cube;whiteSpace=wrap;html=1;boundedLbl=1;backgroundOutline=1;darkOpacity=0.05;darkOpacity2=0.1;direction=south;size=100;fillColor=#ffe6cc;strokeColor=#d79b00;" vertex="1" parent="1">
          <mxGeometry x="130" y="40" width="120" height="370" as="geometry" />
        </mxCell>
        <mxCell id="NuxIAipGaiC-0c_ZpefP-4" value="" style="shape=cube;whiteSpace=wrap;html=1;boundedLbl=1;backgroundOutline=1;darkOpacity=0.05;darkOpacity2=0.1;direction=south;size=80;fillColor=#f8cecc;strokeColor=#b85450;" parent="1" vertex="1">
          <mxGeometry x="191.5" y="100" width="113" height="250" as="geometry" />
        </mxCell>
        <mxCell id="M7fRADg-RS6Ljco3iAjE-27" value="" style="shape=cube;whiteSpace=wrap;html=1;boundedLbl=1;backgroundOutline=1;darkOpacity=0.05;darkOpacity2=0.1;direction=south;size=80;fillColor=#ffe6cc;strokeColor=#d79b00;" vertex="1" parent="1">
          <mxGeometry x="250" y="100" width="113" height="250" as="geometry" />
        </mxCell>
        <mxCell id="M7fRADg-RS6Ljco3iAjE-28" value="" style="shape=cube;whiteSpace=wrap;html=1;boundedLbl=1;backgroundOutline=1;darkOpacity=0.05;darkOpacity2=0.1;direction=south;size=80;fillColor=#ffe6cc;strokeColor=#d79b00;" vertex="1" parent="1">
          <mxGeometry x="314" y="100" width="113" height="250" as="geometry" />
        </mxCell>
        <mxCell id="M7fRADg-RS6Ljco3iAjE-32" value="" style="shape=cube;whiteSpace=wrap;html=1;boundedLbl=1;backgroundOutline=1;darkOpacity=0.05;darkOpacity2=0.1;direction=south;size=80;fillColor=#ffe6cc;strokeColor=#d79b00;" vertex="1" parent="1">
          <mxGeometry x="380" y="100" width="113" height="250" as="geometry" />
        </mxCell>
        <mxCell id="M7fRADg-RS6Ljco3iAjE-3" value="" style="shape=cube;whiteSpace=wrap;html=1;boundedLbl=1;backgroundOutline=1;darkOpacity=0.05;darkOpacity2=0.1;direction=south;size=50;fillColor=#f8cecc;strokeColor=#b85450;" vertex="1" parent="1">
          <mxGeometry x="450" y="140" width="90" height="170" as="geometry" />
        </mxCell>
        <mxCell id="M7fRADg-RS6Ljco3iAjE-29" value="" style="shape=cube;whiteSpace=wrap;html=1;boundedLbl=1;backgroundOutline=1;darkOpacity=0.05;darkOpacity2=0.1;direction=south;size=50;fillColor=#ffe6cc;strokeColor=#d79b00;" vertex="1" parent="1">
          <mxGeometry x="510" y="140" width="90" height="170" as="geometry" />
        </mxCell>
        <mxCell id="M7fRADg-RS6Ljco3iAjE-30" value="" style="shape=cube;whiteSpace=wrap;html=1;boundedLbl=1;backgroundOutline=1;darkOpacity=0.05;darkOpacity2=0.1;direction=south;size=50;fillColor=#ffe6cc;strokeColor=#d79b00;" vertex="1" parent="1">
          <mxGeometry x="570" y="140" width="90" height="170" as="geometry" />
        </mxCell>
        <mxCell id="M7fRADg-RS6Ljco3iAjE-33" value="" style="shape=cube;whiteSpace=wrap;html=1;boundedLbl=1;backgroundOutline=1;darkOpacity=0.05;darkOpacity2=0.1;direction=south;size=50;fillColor=#ffe6cc;strokeColor=#d79b00;" vertex="1" parent="1">
          <mxGeometry x="630" y="140" width="90" height="170" as="geometry" />
        </mxCell>
        <mxCell id="M7fRADg-RS6Ljco3iAjE-25" value="" style="shape=cube;whiteSpace=wrap;html=1;boundedLbl=1;backgroundOutline=1;darkOpacity=0.05;darkOpacity2=0.1;direction=south;size=30;fillColor=#f8cecc;strokeColor=#b85450;" vertex="1" parent="1">
          <mxGeometry x="700" y="175" width="80" height="100" as="geometry" />
        </mxCell>
        <mxCell id="M7fRADg-RS6Ljco3iAjE-24" value="" style="shape=cube;whiteSpace=wrap;html=1;boundedLbl=1;backgroundOutline=1;darkOpacity=0.05;darkOpacity2=0.1;direction=south;size=30;fillColor=#ffe6cc;strokeColor=#d79b00;" vertex="1" parent="1">
          <mxGeometry x="770" y="175" width="80" height="100" as="geometry" />
        </mxCell>
        <mxCell id="M7fRADg-RS6Ljco3iAjE-34" value="" style="shape=cube;whiteSpace=wrap;html=1;boundedLbl=1;backgroundOutline=1;darkOpacity=0.05;darkOpacity2=0.1;direction=south;size=30;fillColor=#ffe6cc;strokeColor=#d79b00;" vertex="1" parent="1">
          <mxGeometry x="840" y="175" width="80" height="100" as="geometry" />
        </mxCell>
        <mxCell id="M7fRADg-RS6Ljco3iAjE-35" value="" style="shape=cube;whiteSpace=wrap;html=1;boundedLbl=1;backgroundOutline=1;darkOpacity=0.05;darkOpacity2=0.1;direction=south;size=30;fillColor=#ffe6cc;strokeColor=#d79b00;" vertex="1" parent="1">
          <mxGeometry x="910" y="175" width="80" height="100" as="geometry" />
        </mxCell>
        <mxCell id="NuxIAipGaiC-0c_ZpefP-8" value="" style="shape=cube;whiteSpace=wrap;html=1;boundedLbl=1;backgroundOutline=1;darkOpacity=0.05;darkOpacity2=0.1;direction=south;size=10;fillColor=#dae8fc;strokeColor=#6c8ebf;" parent="1" vertex="1">
          <mxGeometry x="1070" y="205" width="210" height="40" as="geometry" />
        </mxCell>
        <mxCell id="M7fRADg-RS6Ljco3iAjE-37" value="(36, 5, 5)" style="text;html=1;align=center;verticalAlign=middle;resizable=0;points=[];autosize=1;strokeColor=none;fillColor=none;" vertex="1" parent="1">
          <mxGeometry x="800" y="290" width="60" height="20" as="geometry" />
        </mxCell>
        <mxCell id="M7fRADg-RS6Ljco3iAjE-38" value="" style="shape=cube;whiteSpace=wrap;html=1;boundedLbl=1;backgroundOutline=1;darkOpacity=0.05;darkOpacity2=0.1;direction=south;size=20;fillColor=#f8cecc;strokeColor=#b85450;" vertex="1" parent="1">
          <mxGeometry x="980" y="195" width="70" height="60" as="geometry" />
        </mxCell>
        <mxCell id="M7fRADg-RS6Ljco3iAjE-39" value="(1, 1440)" style="text;html=1;align=center;verticalAlign=middle;resizable=0;points=[];autosize=1;strokeColor=none;fillColor=none;" vertex="1" parent="1">
          <mxGeometry x="1145" y="255" width="60" height="20" as="geometry" />
        </mxCell>
        <mxCell id="M7fRADg-RS6Ljco3iAjE-40" value="" style="shape=cube;whiteSpace=wrap;html=1;boundedLbl=1;backgroundOutline=1;darkOpacity=0.05;darkOpacity2=0.1;direction=south;size=10;fillColor=#dae8fc;strokeColor=#6c8ebf;" vertex="1" parent="1">
          <mxGeometry x="350" y="580" width="230" height="40" as="geometry" />
        </mxCell>
        <mxCell id="M7fRADg-RS6Ljco3iAjE-41" value="" style="shape=cube;whiteSpace=wrap;html=1;boundedLbl=1;backgroundOutline=1;darkOpacity=0.05;darkOpacity2=0.1;direction=south;size=10;fillColor=#dae8fc;strokeColor=#6c8ebf;" vertex="1" parent="1">
          <mxGeometry x="350" y="550" width="230" height="40" as="geometry" />
        </mxCell>
        <mxCell id="M7fRADg-RS6Ljco3iAjE-42" value="" style="shape=cube;whiteSpace=wrap;html=1;boundedLbl=1;backgroundOutline=1;darkOpacity=0.05;darkOpacity2=0.1;direction=south;size=10;fillColor=#dae8fc;strokeColor=#6c8ebf;" vertex="1" parent="1">
          <mxGeometry x="350" y="520" width="230" height="40" as="geometry" />
        </mxCell>
        <mxCell id="M7fRADg-RS6Ljco3iAjE-43" value="" style="shape=cube;whiteSpace=wrap;html=1;boundedLbl=1;backgroundOutline=1;darkOpacity=0.05;darkOpacity2=0.1;direction=south;size=10;fillColor=#dae8fc;strokeColor=#6c8ebf;" vertex="1" parent="1">
          <mxGeometry x="350" y="490" width="230" height="40" as="geometry" />
        </mxCell>
        <mxCell id="M7fRADg-RS6Ljco3iAjE-44" value="4x1440" style="text;html=1;align=center;verticalAlign=middle;resizable=0;points=[];autosize=1;strokeColor=none;fillColor=none;" vertex="1" parent="1">
          <mxGeometry x="440" y="630" width="50" height="20" as="geometry" />
        </mxCell>
      </root>
    </mxGraphModel>
  </diagram>
</mxfile>
